<?xml version="1.0" encoding="UTF-8" standalone="no"?>
<!DOCTYPE svg PUBLIC "-//W3C//DTD SVG 1.1//EN" "http://www.w3.org/Graphics/SVG/1.1/DTD/svg11.dtd">
<svg width="100%" height="100%" viewBox="0 0 260 260" version="1.1" xmlns="http://www.w3.org/2000/svg" xmlns:xlink="http://www.w3.org/1999/xlink" xml:space="preserve" xmlns:serif="http://www.serif.com/" style="fill-rule:evenodd;clip-rule:evenodd;stroke-linejoin:round;stroke-miterlimit:2;">
    <g id="Artboard1" transform="matrix(0.973783,0,0,1.101695,-113.932584,-150.932203)">
        <rect x="117" y="137" width="267" height="236" style="fill:none;"/>
        <g id="Background" transform="matrix(1.026923,0,0,0.907692,-3.15,34.430769)">
            <path d="M186.924,325.418C186.014,320.787 186.015,320.818 185.941,320.417C185.208,316.429 177.126,272.502 177.254,270.486C177.993,258.869 194.978,262.126 197.527,261.692C200.734,261.146 202.909,250.999 212.907,235.684C214.023,233.975 213.655,231.807 189.497,225.51C184.201,224.129 188.671,218.147 188.906,217.737C199.425,199.395 206.467,194.657 205.379,191.537C204.607,189.321 199.408,174.407 201.368,162.481C202.336,156.593 202.337,150.155 214.598,156.31C232.471,165.283 231.198,170.829 235.474,169.421C250.788,164.379 263.284,169.086 265.491,169.564C268.362,170.186 270.016,163.902 285.412,156.332C296.44,150.91 297.021,155.284 297.622,157.466C301.797,172.623 295.838,188.159 294.884,190.645C292.867,195.905 298.299,194.343 311.981,219.231C316.331,227.143 308.601,224.104 288.685,232.883C288.162,233.113 285.916,233.859 287.076,235.681C295.69,249.214 298.867,257.334 299.834,259.339C301.532,262.863 304.963,261.759 311.5,261.76C312.79,261.761 324.722,261.763 322.549,273.509C314.199,318.641 314.526,318.642 313.693,322.54C310.802,336.067 311.322,346.02 300.502,346.542C294.881,346.812 212.18,346.64 204.5,346.624C189.141,346.593 190.107,341.902 186.924,325.418Z" style="fill:rgb(47,46,46);"/>
            <path d="M251.252,230.411C250.86,231.428 250.788,231.349 250.419,232.345C250.19,232.194 249.696,232.914 249.343,231.635C247.371,224.484 242.28,200.236 210.515,207.56C206.493,208.487 198.776,213.228 202.828,207.705C211.306,196.148 214.306,196.373 211.866,190.343C207.88,180.488 204.749,163.722 209.794,170.212C220.446,183.912 220.578,185.67 223.325,184.136C229.832,180.501 212.94,164.853 212.967,163.492C213.045,159.502 230.745,176.629 231.391,176.813C236.204,178.191 241.8,169.681 263.39,175.861C268.114,177.214 268.752,177.795 272.069,174.099C277.627,167.906 294.247,155.846 283.792,167.715C282.93,168.693 274.988,177.709 275.143,181.517C275.213,183.235 277.892,186.657 281.282,182.339C282.273,181.078 288.477,171.948 291.361,169.088C292.707,167.752 295.514,170.215 287.391,192.462C285.617,197.323 302.569,210.158 297.5,210.663C297.093,210.703 288.141,204.888 274.485,206.377C259.663,207.992 252.905,221.716 251.252,230.411Z" style="fill:rgb(227,119,81);"/>
            <path d="M284.412,212.962C285.835,213.353 307.573,219.331 300.637,221.743C288.706,225.891 278.418,229.498 261.324,242.252C260.604,242.789 254.493,244.717 256.292,236.452C261.826,211.03 273.517,211.824 284.412,212.962Z" style="fill:rgb(253,253,253);"/>
            <path d="M215.587,212.953C222.598,212.287 235.468,209.876 242.153,229.608C246.155,241.422 243.475,241.485 242.849,241.963C238.979,244.923 238.886,241.78 231.272,236.856C212.923,224.99 200.61,222.105 199.392,221.678C192.799,219.363 214.17,213.352 215.587,212.953Z" style="fill:rgb(253,253,253);"/>
            <path d="M252.606,291.071C273.026,298.162 258.731,322.527 243.729,314.12C233.202,308.22 236.26,288.795 252.606,291.071Z" style="fill:rgb(252,252,252);"/>
            <path d="M231.434,244.632C248.14,257.518 249.164,260.734 254.3,256.266C256.201,254.611 260.331,250.707 269.42,244.172C270.991,259.004 272.954,258.436 273.762,260.675C273.864,260.956 273.408,261.255 273.51,261.536C257.293,261.499 257.336,261.474 248.5,261.5C246.738,261.506 226.871,261.566 226.48,261.565C229.129,252.691 229.747,252.829 230.179,246.428C230.291,244.763 231.302,244.82 231.434,244.632Z" style="fill:rgb(252,252,253);"/>
            <path d="M231.434,244.632C231.302,244.82 230.291,244.763 230.179,246.428C229.747,252.829 229.129,252.691 226.48,261.565C209.625,261.672 206.042,262.073 206.928,259.647C207.035,259.354 217.423,238.497 219.638,237.891C220.686,237.604 221.578,237.36 231.434,244.632Z" style="fill:rgb(227,119,80);"/>
            <path d="M269.42,244.172C278.677,237.637 279.958,236.668 282.012,239.818C283.058,241.423 294.613,259.148 293.057,261.066C292.287,262.015 276.862,261.588 273.51,261.536C273.408,261.255 273.864,260.956 273.762,260.675C272.954,258.436 270.991,259.004 269.42,244.172Z" style="fill:rgb(226,119,81);"/>
            <path d="M274.797,221.223C280.9,230.047 264.652,232.212 266.437,223.487C266.675,222.326 269.375,216.945 274.797,221.223Z" style="fill:rgb(50,49,50);"/>
            <path d="M225.209,221.231C230.527,216.998 233.259,222.064 233.527,223.495C235.185,232.364 219.365,229.851 225.209,221.231Z" style="fill:rgb(49,48,49);"/>
            <path d="M251.252,230.411C250.974,231.056 250.696,231.7 250.419,232.345C250.788,231.349 250.86,231.428 251.252,230.411Z" style="fill:rgb(107,72,57);"/>
        </g>
    </g>
</svg>
